name Walk3_EMG.mot
datacolumns 17
datarows 30
range 2.85400000 2.88300000
endheader
                time	            vasmed_r	            vaslat_r	            recfem_r	               gra_r	               sar_r	            tibant_r	           perlong_r	            addmag_r	           semimem_r	          bicfemlh_r	            gasmed_r	            gaslat_r	               sol_r	               tfl_r	              gmed_r	              gmax_r	
          2.85400000	          0.05254623	          0.08001906	          0.09746768	          0.26298594	          0.33913102	          0.03282313	          0.02011685	          0.22400681	          0.51158159	          0.26829643	          0.32855641	          0.07921450	          0.03583048	          0.21954373	          0.18569129	          0.20577523	
          2.85500000	          0.05239534	          0.08066389	          0.09732501	          0.26841676	          0.33921503	          0.03257435	          0.01998359	          0.22639198	          0.52247593	          0.26973575	          0.31959820	          0.07769138	          0.03602005	          0.21738715	          0.18327665	          0.20646827	
          2.85600000	          0.05227369	          0.08135079	          0.09717589	          0.27360438	          0.33921915	          0.03239603	          0.01984632	          0.22869060	          0.53312070	          0.27104623	          0.31050950	          0.07621580	          0.03621214	          0.21532584	          0.18079143	          0.20715201	
          2.85700000	          0.05218498	          0.08207704	          0.09702439	          0.27852531	          0.33911844	          0.03228447	          0.01970431	          0.23091393	          0.54350557	          0.27224558	          0.30130925	          0.07479065	          0.03640536	          0.21335131	          0.17824051	          0.20781956	
          2.85800000	          0.05213226	          0.08283933	          0.09687515	          0.28315837	          0.33888938	          0.03223652	          0.01955700	          0.23307368	          0.55361702	          0.27334944	          0.29201703	          0.07341844	          0.03659824	          0.21145718	          0.17562894	          0.20846387	
          2.85900000	          0.05211787	          0.08363386	          0.09673276	          0.28748381	          0.33851008	          0.03224933	          0.01940408	          0.23517906	          0.56343802	          0.27437304	          0.28265272	          0.07210155	          0.03678939	          0.20964045	          0.17296180	          0.20907883	
          2.86000000	          0.05214358	          0.08445690	          0.09660146	          0.29148320	          0.33796042	          0.03232003	          0.01924569	          0.23723580	          0.57294859	          0.27533216	          0.27323591	          0.07084226	          0.03697747	          0.20790187	          0.17024383	          0.20965940	
          2.86100000	          0.05221071	          0.08530519	          0.09648508	          0.29514004	          0.33722239	          0.03244554	          0.01908241	          0.23924678	          0.58212662	          0.27624400	          0.26378569	          0.06964259	          0.03716113	          0.20624613	          0.16747924	          0.21020105	
          2.86200000	          0.05232017	          0.08617573	          0.09638681	          0.29844097	          0.33628166	          0.03262261	          0.01891516	          0.24121349	          0.59095026	          0.27712773	          0.25432089	          0.06850403	          0.03733891	          0.20468089	          0.16467177	          0.21069993	
          2.86300000	          0.05247231	          0.08706529	          0.09630931	          0.30137737	          0.33513148	          0.03284805	          0.01874497	          0.24313844	          0.59940409	          0.27800359	          0.24486042	          0.06742758	          0.03750923	          0.20321402	          0.16182506	          0.21115333	
          2.86400000	          0.05266681	          0.08796999	          0.09625471	          0.30394709	          0.33377679	          0.03311915	          0.01857278	          0.24502941	          0.60748491	          0.27889117	          0.23542363	          0.06641399	          0.03767039	          0.20185164	          0.15894294	          0.21155964	
          2.86500000	          0.05290269	          0.08888529	          0.09622452	          0.30615756	          0.33223443	          0.03343374	          0.01839940	          0.24690340	          0.61520055	          0.27980748	          0.22603012	          0.06546390	          0.03782073	          0.20059858	          0.15602923	          0.21191872	
          2.86600000	          0.05317838	          0.08980631	          0.09621987	          0.30803068	          0.33052920	          0.03378999	          0.01822551	          0.24878625	          0.62256244	          0.28076643	          0.21669906	          0.06457771	          0.03795862	          0.19945945	          0.15308776	          0.21223239	
          2.86700000	          0.05349178	          0.09072812	          0.09624214	          0.30960501	          0.32868927	          0.03418641	          0.01805191	          0.25070722	          0.62957931	          0.28178043	          0.20744865	          0.06375540	          0.03808250	          0.19843973	          0.15012281	          0.21250380	
          2.86800000	          0.05384027	          0.09164595	          0.09629275	          0.31093184	          0.32674245	          0.03462260	          0.01787944	          0.25269391	          0.63625712	          0.28286120	          0.19829623	          0.06299620	          0.03819086	          0.19754630	          0.14713994	          0.21273659	
          2.86900000	          0.05422066	          0.09255548	          0.09637266	          0.31206989	          0.32471345	          0.03510014	          0.01770890	          0.25477243	          0.64260453	          0.28401834	          0.18925865	          0.06229848	          0.03828246	          0.19678638	          0.14414619	          0.21293435	
          2.87000000	          0.05462919	          0.09345388	          0.09648210	          0.31308706	          0.32262249	          0.03562281	          0.01754101	          0.25697086	          0.64863827	          0.28525752	          0.18035243	          0.06165991	          0.03835644	          0.19616611	          0.14114938	          0.21310058	
          2.87100000	          0.05506168	          0.09434062	          0.09662044	          0.31406718	          0.32048552	          0.03619564	          0.01737645	          0.25931918	          0.65438232	          0.28657983	          0.17159329	          0.06107784	          0.03841225	          0.19569006	          0.13815718	          0.21323869	
          2.87200000	          0.05551361	          0.09521684	          0.09678628	          0.31510980	          0.31831549	          0.03682381	          0.01721597	          0.26184412	          0.65986145	          0.28798180	          0.16299581	          0.06054963	          0.03844942	          0.19536106	          0.13517665	          0.21335225	
          2.87300000	          0.05598032	          0.09608389	          0.09697755	          0.31631940	          0.31612383	          0.03751231	          0.01706024	          0.26456430	          0.66509475	          0.28945615	          0.15457339	          0.06007270	          0.03846763	          0.19517982	          0.13221399	          0.21344490	
          2.87400000	          0.05645710	          0.09694233	          0.09719163	          0.31779287	          0.31392187	          0.03826652	          0.01690999	          0.26748928	          0.67009245	          0.29099306	          0.14633848	          0.05964453	          0.03846677	          0.19514497	          0.12927438	          0.21352015	
          2.87500000	          0.05693940	          0.09779172	          0.09742541	          0.31961198	          0.31172300	          0.03909230	          0.01676614	          0.27062142	          0.67485528	          0.29258171	          0.13830293	          0.05926268	          0.03844705	          0.19525401	          0.12636221	          0.21358143	
          2.87600000	          0.05742278	          0.09863091	          0.09767529	          0.32184156	          0.30954478	          0.03999519	          0.01662989	          0.27395776	          0.67937588	          0.29421113	          0.13047819	          0.05892473	          0.03840899	          0.19550423	          0.12348162	          0.21363222	
          2.87700000	          0.05790304	          0.09945836	          0.09793791	          0.32453267	          0.30740945	          0.04097957	          0.01650257	          0.27749059	          0.68364125	          0.29587029	          0.12287555	          0.05862835	          0.03835338	          0.19589357	          0.12063683	          0.21367577	
          2.87800000	          0.05837664	          0.10027217	          0.09821099	          0.32772880	          0.30534329	          0.04204832	          0.01638556	          0.28120721	          0.68763570	          0.29754906	          0.11550586	          0.05837124	          0.03828139	          0.19642148	          0.11783214	          0.21371462	
          2.87900000	          0.05884257	          0.10106998	          0.09849338	          0.33147023	          0.30337588	          0.04320274	          0.01628050	          0.28508998	          0.69134367	          0.29923917	          0.10837913	          0.05815099	          0.03819441	          0.19708808	          0.11507171	          0.21375056	
          2.88000000	          0.05930431	          0.10184885	          0.09878444	          0.33579354	          0.30153947	          0.04444254	          0.01618936	          0.28911815	          0.69475198	          0.30093372	          0.10150430	          0.05796506	          0.03809372	          0.19789194	          0.11235968	          0.21378522	
          2.88100000	          0.05976977	          0.10260587	          0.09908349	          0.34072830	          0.29986818	          0.04576590	          0.01611423	          0.29327090	          0.69785114	          0.30262540	          0.09488926	          0.05781073	          0.03798030	          0.19882864	          0.10970085	          0.21382108	
          2.88200000	          0.06025046	          0.10333909	          0.09938934	          0.34629664	          0.29839551	          0.04716968	          0.01605707	          0.29752934	          0.70063590	          0.30430492	          0.08854071	          0.05768518	          0.03785487	          0.19989063	          0.10710175	          0.21386140	
          2.88300000	          0.06076191	          0.10404792	          0.09970018	          0.35251566	          0.29715089	          0.04864976	          0.01601959	          0.30187599	          0.70310461	          0.30596081	          0.08246391	          0.05758543	          0.03771799	          0.20106767	          0.10457128	          0.21390911	
